{
  "title": "A Place to Call Home - S04E03 - When You're Smiling",
  "uid": 15897118,
  "size": 402594483,
  "categoryP": "video",
  "categoryS": "tv_shows",
  "magnet": "?xt=urn:btih:3cde58cf7c41c17fa239c0f5bdd8e89061dd4bd9&amp;dn=A+Place+to+Call+Home+-+S04E03+-+When+You%27re+Smiling&amp;tr=udp%3A%2F%2Ftracker.leechers-paradise.org%3A6969&amp;tr=udp%3A%2F%2Fzer0day.ch%3A1337&amp;tr=udp%3A%2F%2Fopen.demonii.com%3A1337&amp;tr=udp%3A%2F%2Ftracker.coppersurfer.tk%3A6969&amp;tr=udp%3A%2F%2Fexodus.desync.com%3A6969",
  "seeders": 166,
  "leechers": 34,
  "uploader": "Bullrout",
  "files": 1,
  "time": 1474822551,
  "description": "A Place to Call Home - S04E03 - When You're Smiling\r\n\r\nWhen Sarah and Roy go to Sydney, she finds more than she bargained for. Can Carolyn admit the truth to Elizabeth? Henry's confession forces James to sort out his true feelings.\r\n\r\nComplete name                            : A Place To Call Home - S04E03 - When You're Smiling.mp4\r\nFormat                                   : MPEG-4\r\nFormat profile                           : Base Media / Version 2\r\nCodec ID                                 : mp42 (mp42/isom/avc1)\r\nFile size                                : 384 MiB\r\nDuration                                 : 48 min 33 s\r\nOverall bit rate mode                    : Variable\r\nOverall bit rate                         : 1 105 kb/s\r\n\r\nVideo\r\nID                                       : 2\r\nFormat                                   : AVC\r\nFormat/Info                              : Advanced Video Codec\r\nFormat profile                           :   \r\nFormat settings, CABAC                   : Yes\r\nFormat settings, ReFrames                : 3 frames\r\nCodec ID                                 : avc1\r\nCodec ID/Info                            : Advanced Video Coding\r\nDuration                                 : 48 min 33 s\r\nBit rate mode                            : Variable\r\nBit rate                                 : 974 kb/s\r\nMaximum bit rate                         : 1 000 kb/s\r\nWidth                                    : 720 pixels\r\nHeight                                   : 404 pixels\r\nDisplay aspect ratio                     : 16:9\r\nOriginal display aspect ratio            : 16:9\r\nFrame rate mode                          : Constant\r\nFrame rate                               : 25.000 FPS\r\nStandard                                 : PAL\r\nColor space                              : YUV\r\nChroma subsampling                       : 4:2:0\r\nBit depth                                : 8 bits\r\nScan type                                : Progressive\r\nBits/(Pixel*Frame)                       : 0.134\r\nStream size                              : 338 MiB (88%)\r\nWriting library                          : x264 core 112\r\nColor range                              : Limited\r\nColor primaries                          : BT.601 PAL\r\nTransfer characteristics                 : BT.470 System B, BT.470 System G\r\nMatrix coefficients                      : BT.601\r\n\r\nAudio\r\nID                                       : 1\r\nFormat                                   : AAC\r\nFormat/Info                              : Advanced Audio Codec\r\nFormat profile                           : LC\r\nCodec ID                                 : 40\r\nDuration                                 : 48 min 33 s\r\nBit rate mode                            : Variable\r\nBit rate                                 : 128 kb/s\r\nMaximum bit rate                         : 576 kb/s\r\nChannel(s)                               : 2 channels\r\nChannel positions                        : Front: L R\r\nSampling rate                            : 48.0 kHz\r\nFrame rate                               : 46.875 FPS (1024 spf)\r\nCompression mode                         : Lossy\r\nStream size                              : 44.5 MiB (12%)",
  "parsed": {
    "xt": "urn:btih:3cde58cf7c41c17fa239c0f5bdd8e89061dd4bd9",
    "dn": "A Place to Call Home - S04E03 - When You're Smiling",
    "tr": [
      "udp://exodus.desync.com:6969",
      "udp://open.demonii.com:1337",
      "udp://tracker.coppersurfer.tk:6969",
      "udp://tracker.leechers-paradise.org:6969",
      "udp://zer0day.ch:1337"
    ],
    "infoHash": "3cde58cf7c41c17fa239c0f5bdd8e89061dd4bd9",
    "infoHashBuffer": {
      "type": "Buffer",
      "data": [
        60,
        222,
        88,
        207,
        124,
        65,
        193,
        127,
        162,
        57,
        192,
        245,
        189,
        216,
        232,
        144,
        97,
        221,
        75,
        217
      ]
    },
    "name": "A Place to Call Home - S04E03 - When You're Smiling",
    "announce": [
      "udp://exodus.desync.com:6969",
      "udp://open.demonii.com:1337",
      "udp://tracker.coppersurfer.tk:6969",
      "udp://tracker.leechers-paradise.org:6969",
      "udp://zer0day.ch:1337"
    ],
    "urlList": []
  },
  "previous": 200,
  "peers": 124,
  "last_updated": "2016-12-24T22:46:42.488Z"
}